<svg version="1.1" xmlns="http://www.w3.org/2000/svg" viewBox="0 0 224.6071937522106 353.9675408201694" width="224.6071937522106" height="353.9675408201694" filter="invert(93%) hue-rotate(180deg)" class="excalidraw-svg">
  <!-- svg-source:excalidraw -->
  
  <defs>
    <style class="style-fonts">
      
    </style>
    
  </defs>
  <g stroke-linecap="round" transform="translate(30.17268772617497 9.999999999999986) rotate(0 22.28009033203125 22.28009033203125)"><path d="M17.64 0.08 C22.07 -1.17, 28.59 0.43, 32.86 2.6 C37.12 4.77, 41.48 8.71, 43.24 13.12 C44.99 17.53, 44.79 24.34, 43.39 29.06 C41.98 33.78, 38.75 38.89, 34.83 41.44 C30.91 43.99, 24.72 45.07, 19.88 44.35 C15.04 43.63, 9.08 40.65, 5.8 37.14 C2.52 33.63, 0.46 28.07, 0.21 23.28 C-0.04 18.49, 1.36 12.25, 4.29 8.39 C7.22 4.53, 15.48 1.43, 17.81 0.13 C20.14 -1.18, 18.21 0.15, 18.28 0.55 M25.19 -0.03 C29.66 0.26, 35.34 3.59, 38.52 7.19 C41.69 10.78, 43.92 16.68, 44.26 21.52 C44.59 26.36, 43.21 32.34, 40.51 36.2 C37.8 40.07, 32.84 43.75, 28.05 44.73 C23.26 45.7, 16.03 44.31, 11.76 42.05 C7.49 39.79, 4.25 35.47, 2.42 31.17 C0.59 26.88, -0.55 20.88, 0.77 16.26 C2.09 11.65, 6.37 6.16, 10.35 3.46 C14.34 0.76, 22.29 0.44, 24.7 0.06 C27.1 -0.33, 24.89 0.84, 24.79 1.14" stroke="#1e1e1e" stroke-width="2" fill="none"></path></g><g stroke-linecap="round" transform="translate(60.303411084041 18.878639655552576) rotate(0 55.266204833984375 55.266204833984375)"><path d="M46.65 0.58 C55.25 -1.46, 66.71 0.44, 75.41 3.65 C84.1 6.87, 93.02 12.65, 98.81 19.88 C104.6 27.1, 108.81 37.84, 110.14 46.97 C111.48 56.11, 110.25 66.21, 106.8 74.67 C103.35 83.12, 96.72 91.8, 89.43 97.69 C82.13 103.59, 72.25 108.7, 63.03 110.04 C53.82 111.38, 42.6 109.1, 34.12 105.72 C25.65 102.34, 17.87 96.86, 12.16 89.77 C6.44 82.67, 1.06 72.16, -0.16 63.14 C-1.38 54.13, 1.26 44.31, 4.83 35.69 C8.4 27.06, 13.8 17.3, 21.26 11.38 C28.72 5.46, 44.63 2.02, 49.58 0.18 C54.53 -1.67, 50.95 -0.46, 50.96 0.33 M43.77 0.93 C52.13 -1.75, 62.96 -0.08, 71.82 2.61 C80.68 5.3, 90.51 10.04, 96.93 17.05 C103.35 24.06, 108.55 35.44, 110.32 44.66 C112.1 53.89, 110.75 63.91, 107.59 72.42 C104.44 80.92, 97.9 89.62, 91.4 95.7 C84.9 101.79, 77.35 106.67, 68.59 108.9 C59.83 111.13, 47.93 111.99, 38.84 109.1 C29.75 106.22, 20.52 98.65, 14.06 91.6 C7.59 84.55, 2.22 75.63, 0.07 66.79 C-2.09 57.96, -1.82 47.45, 1.12 38.59 C4.05 29.73, 10.56 19.61, 17.66 13.62 C24.76 7.64, 39.27 4.49, 43.7 2.68 C48.14 0.88, 44.11 1.98, 44.28 2.81" stroke="#1e1e1e" stroke-width="2" fill="none"></path></g><g stroke-linecap="round"><g transform="translate(110.6507011231035 136.19560111743692) rotate(0 -49.167172503524746 85.1600408406083)"><path d="M0.95 1.01 C-15.58 29.38, -81.49 141.88, -98.13 170.01 M-0.01 0.5 C-16.77 29.06, -82.31 142.99, -98.97 171.39" stroke="#1e1e1e" stroke-width="2" fill="none"></path></g></g><mask></mask><g stroke-linecap="round"><g transform="translate(10.534978466853502 307.49189628345255) rotate(0 101.27313232421875 0)"><path d="M-0.53 0.05 C32.92 0.25, 168.02 -0.1, 201.77 0.08 M1.39 -0.96 C35.14 -0.45, 170.83 1.6, 204.07 1.66" stroke="#1e1e1e" stroke-width="2" fill="none"></path></g></g><mask></mask><g stroke-linecap="round"><g transform="translate(112.3867851074785 136.19560111743692) rotate(0 48.92559584859635 84.74161780034979)"><path d="M-0.54 -0.06 C15.54 28.24, 80.49 141, 97.07 169.09 M1.38 -1.13 C17.79 27.4, 83.14 142.02, 99.36 170.42" stroke="#1e1e1e" stroke-width="2" fill="none"></path></g></g><mask></mask><g stroke-linecap="round" transform="translate(67.55211022655801 53.60087970249248) rotate(0 20.543975830078125 20.543975830078125)"><path d="M21.54 -0.43 C25.69 -0.65, 31.01 1.86, 34.28 4.8 C37.56 7.75, 40.53 12.81, 41.21 17.27 C41.88 21.72, 40.7 27.66, 38.31 31.52 C35.93 35.38, 31.1 39.06, 26.88 40.42 C22.65 41.79, 17 41.45, 12.96 39.72 C8.93 37.98, 4.79 33.92, 2.67 29.99 C0.55 26.07, -0.56 20.42, 0.23 16.17 C1.02 11.93, 3.8 7.18, 7.41 4.52 C11.03 1.85, 19.39 0.81, 21.92 0.19 C24.44 -0.43, 22.61 0.39, 22.59 0.79 M25.08 1.17 C29.11 1.77, 33.86 4.73, 36.51 8.13 C39.15 11.53, 41.12 17.3, 40.97 21.57 C40.82 25.84, 38.65 30.48, 35.61 33.76 C32.58 37.05, 27.22 40.64, 22.75 41.26 C18.27 41.88, 12.42 39.84, 8.75 37.49 C5.07 35.13, 1.82 31.34, 0.71 27.15 C-0.4 22.96, 0.26 16.6, 2.08 12.35 C3.89 8.09, 7.76 3.49, 11.6 1.63 C15.44 -0.23, 22.88 1.39, 25.14 1.18 C27.39 0.97, 25.33 0.24, 25.13 0.38" stroke="#1e1e1e" stroke-width="2" fill="none"></path></g><g stroke-linecap="round" transform="translate(126.3513556702958 53.41055664263834) rotate(67.65934379393443 20.543975830078125 20.543975830078125)"><path d="M22.99 0.26 C27.14 0.46, 32.47 2.8, 35.45 6.02 C38.42 9.23, 40.49 15.17, 40.84 19.55 C41.19 23.92, 40.18 28.81, 37.56 32.26 C34.95 35.71, 29.5 39.23, 25.15 40.27 C20.81 41.32, 15.38 40.38, 11.49 38.53 C7.61 36.68, 3.62 33.2, 1.86 29.19 C0.09 25.17, -0.31 18.81, 0.9 14.44 C2.11 10.07, 5.25 5.34, 9.12 2.98 C12.99 0.62, 21.45 0.53, 24.13 0.27 C26.8 0.01, 25.27 1.06, 25.2 1.43 M20.77 -0.64 C25.02 -0.95, 30.39 1.86, 33.65 4.88 C36.9 7.91, 39.49 13.23, 40.33 17.48 C41.16 21.73, 40.67 26.74, 38.66 30.41 C36.65 34.08, 32.37 37.85, 28.26 39.5 C24.15 41.15, 18.31 41.73, 14 40.32 C9.68 38.9, 4.79 34.9, 2.39 30.99 C-0.01 27.09, -1.3 21.22, -0.43 16.87 C0.45 12.52, 4.14 7.58, 7.66 4.89 C11.18 2.19, 18.51 1.34, 20.7 0.69 C22.89 0.03, 20.87 0.67, 20.79 0.95" stroke="#1e1e1e" stroke-width="2" fill="none"></path></g><g stroke-linecap="round"><g transform="translate(106.10449160193174 64.21561438545369) rotate(0 11.006722704198523 0)"><path d="M0.11 0.17 C3.7 0.28, 18.04 0.16, 21.68 0.19 M-0.5 -0.22 C3.26 -0.23, 19.06 -0.63, 22.74 -0.68" stroke="#1e1e1e" stroke-width="2" fill="none"></path></g></g><mask></mask><g stroke-linecap="round"><g transform="translate(91.55347211919725 309.22798026782755) rotate(0 -0.289337158203125 17.361114501953125)"><path d="M-0.08 -0.08 C-0.09 5.66, -0.04 28.45, -0.18 34.27 M-0.78 -0.6 C-0.82 5.22, -0.58 28.72, -0.41 34.74" stroke="#1e1e1e" stroke-width="2" fill="none"></path></g></g><mask></mask><g stroke-linecap="round"><g transform="translate(129.16919477544724 308.0705705998588) rotate(0 -0.289337158203125 17.650482177734375)"><path d="M0.4 0.45 C0.44 6.44, -0.01 29.96, -0.11 35.85 M-0.06 0.21 C-0.02 6.07, -0.25 29.38, -0.3 35.16" stroke="#1e1e1e" stroke-width="2" fill="none"></path></g></g><mask></mask><g stroke-linecap="round"><g transform="translate(90.974797802791 141.98264945728067) rotate(0 -32.26273345947266 32.262733459472656)"><path d="M-0.11 0.53 C-10.93 11.14, -53.99 52.84, -64.69 63.57 M-1.62 -0.24 C-12.64 10.5, -55.16 54.1, -65.72 64.61" stroke="#1e1e1e" stroke-width="2" fill="none"></path></g></g><mask></mask><g stroke-linecap="round"><g transform="translate(136.11365278325974 140.24653495532755) rotate(0 37.03703308105469 37.03703308105468)"><path d="M-1.05 1.05 C11.37 13.44, 62.52 62.48, 75 74.8 M0.59 0.56 C12.9 12.57, 62.48 60.96, 74.55 73.05" stroke="#1e1e1e" stroke-width="2" fill="none"></path></g></g><mask></mask></svg>